<?xml version="1.0" encoding="utf-8"?>
<?xml-stylesheet type="text/xsl" href="rss1.xsl"?>
<rss version="2.0" xmlns:atom="http://www.w3.org/2005/Atom" xmlns:content="http://purl.org/rss/1.0/modules/content/" xmlns:dc="http://purl.org/dc/elements/1.1/" xmlns:media="http://search.yahoo.com/mrss/">
<channel>
 <title>Getty</title>
 <link>http://www.gettyimg.com/</link>
 <atom:link href="http://www.gettyimg.com/" rel="self" type="application/rss+xml" />

 
                <item>
                <title><![CDATA[【HD Live Performances】WEB-RiP - Colapesce Dimartino - VivaRai2 [23-02-23] - RAI2HD IPTV 1080p]]></title>
                <link><![CDATA[https://sharemania.us/threads/colapesce-dimartino-vivarai2-23-02-23-rai2hd-iptv-1080p.219770/]]></link>
                <description><![CDATA[<article>
<blockquote class="messageText SelectQuoteContainer ugc baseHtml">
Colapesce Dimartino - Splash<br>
<img src="https://i.imgur.com/3WgoOqB.png" class="bbCodeImage LbImage" alt="[​IMG]" data-url="https://i.imgur.com/3WgoOqB.png" style=""><br>
<br>
<div class="bbCodeBlock bbCodeCode">
<div class="type">Code:</div>
<pre>General
Complete name                            : Colapesce Dimartino - Splash - VivaRai2 [23-02-23] - RAI2 1080p.mkv
Format                                   : Matroska
Format version                           : Version 4
File size                                : 225 MiB
Duration                                 : 4 min 0 s
Overall bit rate                         : 7 875 kb/s
Encoded date                             : UTC 2023-04-26 08:23:50
Writing application                      : mkvmerge v55.0.0 ('Waiting For Space') 64-bit
Writing library                          : libebml v1.4.2 + libmatroska v1.6.4
Video
ID                                       : 1
Format                                   : AVC
Format/Info                              : Advanced Video Codec
Format profile                           : Main@L4.2
Format settings                          : CABAC / 2 Ref Frames
Format settings, CABAC                   : Yes
Format settings, Reference frames        : 2 frames
Codec ID                                 : V_MPEG4/ISO/AVC
Duration                                 : 4 min 0 s
Bit rate                                 : 7 615 kb/s
Width                                    : 1 920 pixels
Height                                   : 1 080 pixels
Display aspect ratio                     : 16:9
Frame rate mode                          : Constant
Frame rate                               : 50.000 FPS
Color space                              : YUV
Chroma subsampling                       : 4:2:0
Bit depth                                : 8 bits
Scan type                                : Progressive
Bits/(Pixel*Frame)                       : 0.073
Stream size                              : 218 MiB (97%)
Language                                 : Italian
Default                                  : Yes
Forced                                   : No
Audio
ID                                       : 2
Format                                   : E-AC-3
Format/Info                              : Enhanced AC-3
Commercial name                          : Dolby Digital Plus
Codec ID                                 : A_EAC3
Duration                                 : 4 min 0 s
Bit rate mode                            : Constant
Bit rate                                 : 256 kb/s
Channel(s)                               : 6 channels
Channel layout                           : L R C LFE Ls Rs
Sampling rate                            : 48.0 kHz
Frame rate                               : 31.250 FPS (1536 SPF)
Compression mode                         : Lossy
Stream size                              : 7.32 MiB (3%)
Language                                 : Italian
Service kind                             : Complete Main
Default                                  : Yes
Forced                                   : No

</pre>
</div><br>
<br>
Colapesce Dimartino &amp; Fiorello - Figli delle stelle<br>
<br>
<img src="https://i.imgur.com/g2e3FMo.png" class="bbCodeImage LbImage" alt="[​IMG]" data-url="https://i.imgur.com/g2e3FMo.png" style=""><br>
<br>
<div class="bbCodeBlock bbCodeCode">
<div class="type">Code:</div>
<pre>General
Complete name                            : Colapesce Dimartino &amp; Fiorello - Figli delle stelle - VivaRai2 [23-02-23] - RAI2 1080p.mkv
Format                                   : Matroska
Format version                           : Version 4
File size                                : 106 MiB
Duration                                 : 1 min 55 s
Overall bit rate                         : 7 696 kb/s
Encoded date                             : UTC 2023-04-26 08:23:50
Writing application                      : mkvmerge v55.0.0 ('Waiting For Space') 64-bit
Writing library                          : libebml v1.4.2 + libmatroska v1.6.4
Video
ID                                       : 1
Format                                   : AVC
Format/Info                              : Advanced Video Codec
Format profile                           : Main@L4.2
Format settings                          : CABAC / 2 Ref Frames
Format settings, CABAC                   : Yes
Format settings, Reference frames        : 2 frames
Codec ID                                 : V_MPEG4/ISO/AVC
Duration                                 : 1 min 55 s
Bit rate                                 : 7 436 kb/s
Width                                    : 1 920 pixels
Height                                   : 1 080 pixels
Display aspect ratio                     : 16:9
Frame rate mode                          : Constant
Frame rate                               : 50.000 FPS
Color space                              : YUV
Chroma subsampling                       : 4:2:0
Bit depth                                : 8 bits
Scan type                                : Progressive
Bits/(Pixel*Frame)                       : 0.072
Stream size                              : 102 MiB (97%)
Language                                 : Italian
Default                                  : Yes
Forced                                   : No
Audio
ID                                       : 2
Format                                   : E-AC-3
Format/Info                              : Enhanced AC-3
Commercial name                          : Dolby Digital Plus
Codec ID                                 : A_EAC3
Duration                                 : 1 min 55 s
Bit rate mode                            : Constant
Bit rate                                 : 256 kb/s
Channel(s)                               : 6 channels
Channel layout                           : L R C LFE Ls Rs
Sampling rate                            : 48.0 kHz
Frame rate                               : 31.250 FPS (1536 SPF)
Compression mode                         : Lossy
Stream size                              : 3.52 MiB (3%)
Language                                 : Italian
Service kind                             : Complete Main
Default                                  : Yes
Forced                                   : No
</pre>
</div>
<div class="bbCodeBlock bbCodeVfcHH HiddenContent">
<div class="attribution type">Hidden Content:</div>
<blockquote>You must either reply or click 'Like' to see the hidden information contained here.</blockquote>
</div>
<div class="messageTextEndMarker">&nbsp;</div>
</blockquote>
</article>]]></description>
                <author><![CDATA[LLAVE1]]></author>
                </item>

                
                <item>
                <title><![CDATA[【HD Live Performances】WEB-RiP - Olly - VivaRai2 [24-02-23] - RAI2HD IPTV 1080p]]></title>
                <link><![CDATA[https://sharemania.us/threads/olly-vivarai2-24-02-23-rai2hd-iptv-1080p.219771/]]></link>
                <description><![CDATA[<article>
<blockquote class="messageText SelectQuoteContainer ugc baseHtml">
Olly - Polvere<br>
<img src="https://i.imgur.com/aTHisQk.png" class="bbCodeImage LbImage" alt="[​IMG]" data-url="https://i.imgur.com/aTHisQk.png" style=""><br>
<div class="bbCodeBlock bbCodeCode">
<div class="type">Code:</div>
<pre>General
Complete name                            : Olly - Polvere - VivaRai2 [24-02-23] - RAI2 1080p.mkv
Format                                   : Matroska
Format version                           : Version 4
File size                                : 227 MiB
Duration                                 : 4 min 1 s
Overall bit rate                         : 7 872 kb/s
Encoded date                             : UTC 2023-04-26 08:37:41
Writing application                      : mkvmerge v55.0.0 ('Waiting For Space') 64-bit
Writing library                          : libebml v1.4.2 + libmatroska v1.6.4
Video
ID                                       : 1
Format                                   : AVC
Format/Info                              : Advanced Video Codec
Format profile                           : Main@L4.2
Format settings                          : CABAC / 2 Ref Frames
Format settings, CABAC                   : Yes
Format settings, Reference frames        : 2 frames
Codec ID                                 : V_MPEG4/ISO/AVC
Duration                                 : 4 min 1 s
Bit rate                                 : 7 612 kb/s
Width                                    : 1 920 pixels
Height                                   : 1 080 pixels
Display aspect ratio                     : 16:9
Frame rate mode                          : Constant
Frame rate                               : 50.000 FPS
Color space                              : YUV
Chroma subsampling                       : 4:2:0
Bit depth                                : 8 bits
Scan type                                : Progressive
Bits/(Pixel*Frame)                       : 0.073
Stream size                              : 219 MiB (97%)
Language                                 : Italian
Default                                  : Yes
Forced                                   : No
Audio
ID                                       : 2
Format                                   : E-AC-3
Format/Info                              : Enhanced AC-3
Commercial name                          : Dolby Digital Plus
Codec ID                                 : A_EAC3
Duration                                 : 4 min 1 s
Bit rate mode                            : Constant
Bit rate                                 : 256 kb/s
Channel(s)                               : 6 channels
Channel layout                           : L R C LFE Ls Rs
Sampling rate                            : 48.0 kHz
Frame rate                               : 31.250 FPS (1536 SPF)
Compression mode                         : Lossy
Stream size                              : 7.37 MiB (3%)
Language                                 : Italian
Service kind                             : Complete Main
Default                                  : Yes
Forced                                   : No

</pre>
</div><br>
Olly - La notte vola<br>
<br>
<img src="https://i.imgur.com/RONISPu.png" class="bbCodeImage LbImage" alt="[​IMG]" data-url="https://i.imgur.com/RONISPu.png" style=""><br>
<br>
<div class="bbCodeBlock bbCodeCode">
<div class="type">Code:</div>
<pre>General
Complete name                            : Olly - La notte vola - VivaRai2 [24-02-23] - RAI2 1080p.mkv
Format                                   : Matroska
Format version                           : Version 4
File size                                : 101 MiB
Duration                                 : 1 min 48 s
Overall bit rate                         : 7 815 kb/s
Encoded date                             : UTC 2023-04-26 08:37:41
Writing application                      : mkvmerge v55.0.0 ('Waiting For Space') 64-bit
Writing library                          : libebml v1.4.2 + libmatroska v1.6.4
Video
ID                                       : 1
Format                                   : AVC
Format/Info                              : Advanced Video Codec
Format profile                           : Main@L4.2
Format settings                          : CABAC / 2 Ref Frames
Format settings, CABAC                   : Yes
Format settings, Reference frames        : 2 frames
Codec ID                                 : V_MPEG4/ISO/AVC
Duration                                 : 1 min 48 s
Bit rate                                 : 7 555 kb/s
Width                                    : 1 920 pixels
Height                                   : 1 080 pixels
Display aspect ratio                     : 16:9
Frame rate mode                          : Constant
Frame rate                               : 50.000 FPS
Color space                              : YUV
Chroma subsampling                       : 4:2:0
Bit depth                                : 8 bits
Scan type                                : Progressive
Bits/(Pixel*Frame)                       : 0.073
Stream size                              : 98.0 MiB (97%)
Language                                 : Italian
Default                                  : Yes
Forced                                   : No
Audio
ID                                       : 2
Format                                   : E-AC-3
Format/Info                              : Enhanced AC-3
Commercial name                          : Dolby Digital Plus
Codec ID                                 : A_EAC3
Duration                                 : 1 min 48 s
Bit rate mode                            : Constant
Bit rate                                 : 256 kb/s
Channel(s)                               : 6 channels
Channel layout                           : L R C LFE Ls Rs
Sampling rate                            : 48.0 kHz
Frame rate                               : 31.250 FPS (1536 SPF)
Compression mode                         : Lossy
Stream size                              : 3.32 MiB (3%)
Language                                 : Italian
Service kind                             : Complete Main
Default                                  : Yes
Forced                                   : No

</pre>
</div><br>
<div class="bbCodeBlock bbCodeVfcHH HiddenContent">
<div class="attribution type">Hidden Content:</div>
<blockquote>You must either reply or click 'Like' to see the hidden information contained here.</blockquote>
</div>
<div class="messageTextEndMarker">&nbsp;</div>
</blockquote>
</article>]]></description>
                <author><![CDATA[LLAVE1]]></author>
                </item>

                </channel></rss>